# This file uses centimeters as units for non-parametric coordinates.

g default
v 0.432877 0.174265 -0.046311
v 0.249922 0.174265 -0.046311
v 0.000000 0.174265 -0.046311
v -0.249922 0.174265 -0.046311
v -0.432877 0.174265 -0.046311
v -0.499843 0.284460 -0.046311
v -0.432877 0.565221 -0.046311
v -0.249922 0.717337 -0.046311
v 0.000000 0.784304 -0.046311
v 0.249922 0.717337 -0.046311
v 0.432877 0.565221 -0.046311
v 0.499843 0.284460 -0.046311
v 0.432877 0.174265 -1.082363
v 0.249922 0.174265 -1.082363
v -0.000000 0.284460 -1.082363
v 0.000000 0.174265 -1.082363
v -0.249922 0.174265 -1.082363
v -0.432877 0.174265 -1.082363
v -0.499843 0.284460 -1.082363
v -0.432877 0.565221 -1.082363
v -0.249922 0.717337 -1.082363
v -0.000000 0.784304 -1.082363
v 0.249922 0.717337 -1.082363
v 0.432877 0.565221 -1.082363
v 0.499843 0.284460 -1.082363
v 0.000000 0.205104 1.941170
v 0.432877 0.174265 0.460637
v 0.300711 0.153947 1.045860
v 0.249922 0.174265 0.464025
v 0.170140 0.153947 1.056348
v 0.000000 0.174265 0.471499
v 0.000000 0.153947 1.063822
v -0.249922 0.174265 0.464025
v -0.170140 0.153947 1.056348
v -0.432877 0.174265 0.460637
v -0.300711 0.153947 1.045860
v -0.499843 0.284460 0.454015
v -0.405289 0.244902 1.026141
v -0.432877 0.565221 0.454354
v -0.356269 0.490140 1.017966
v -0.249922 0.717337 0.453582
v -0.207170 0.605448 1.014002
v 0.000000 0.784304 0.454292
v 0.000000 0.661503 1.013388
v 0.249922 0.717337 0.453582
v 0.207170 0.605448 1.014002
v 0.432877 0.565221 0.454354
v 0.356269 0.490140 1.017966
v 0.499843 0.284460 0.454015
v 0.405289 0.244902 1.026141
v -1.027593 0.082554 -1.297834
v -1.133306 0.217375 -1.297834
v -1.133306 0.217375 -2.333886
v -1.027593 0.082554 -2.333886
v -1.105085 0.353942 -1.297834
v -1.105085 0.353942 -2.333886
v 1.105085 0.353942 -1.297834
v 1.133306 0.217375 -1.297834
v 1.133306 0.217375 -2.333886
v 1.105085 0.353942 -2.333886
v 1.027593 0.082554 -1.297834
v 1.027593 0.082554 -2.333886
v -0.249922 0.717337 -0.046312
v 0.000000 0.784304 -0.046312
v -0.000000 0.784304 -1.082363
v -0.249922 0.717337 -1.082363
v 0.249922 0.717337 -0.046312
v 0.249922 0.717337 -1.082363
vt 0.417133 0.606340
vt 0.442614 0.606340
vt 0.442614 0.799652
vt 0.417133 0.799652
vt 0.429650 0.372824
vt 0.482036 0.372824
vt 0.391977 0.606340
vt 0.391977 0.799652
vt 0.429650 0.279471
vt 0.482036 0.279408
vt 0.409089 0.372824
vt 0.422269 0.172721
vt 0.468027 0.174246
vt 0.510418 0.279552
vt 0.510418 0.372824
vt 0.409089 0.278236
vt 0.405298 0.169042
vt 0.414843 0.001990
vt 0.489542 0.174986
vt 0.510418 0.566136
vt 0.482036 0.566136
vt 0.569743 0.195302
vt 0.541866 0.195302
vt 0.543782 0.001032
vt 0.572138 0.001032
vt 0.608685 0.416361
vt 0.554383 0.428818
vt 0.519106 0.194344
vt 0.518627 0.001032
vt 0.606769 0.522234
vt 0.554383 0.522171
vt 0.533822 0.428818
vt 0.592760 0.627396
vt 0.547002 0.628921
vt 0.533822 0.523407
vt 0.637547 0.522090
vt 0.637547 0.428338
vt 0.614275 0.626656
vt 0.541493 0.796298
vt 0.530031 0.632600
vt 0.609164 0.234068
vt 0.637547 0.233589
vt 0.898609 0.666325
vt 0.846223 0.666325
vt 0.833706 0.432809
vt 0.859188 0.432809
vt 0.825663 0.666325
vt 0.808551 0.432809
vt 0.750030 0.432809
vt 0.802415 0.432809
vt 0.762994 0.666325
vt 0.737512 0.666325
vt 0.729469 0.432809
vt 0.712357 0.666325
vt 0.278219 0.428818
vt 0.241358 0.428818
vt 0.241358 0.235506
vt 0.278219 0.235506
vt 0.275494 0.523406
vt 0.241358 0.524039
vt 0.194726 0.428818
vt 0.194726 0.235506
vt 0.386460 0.001990
vt 0.387822 0.195302
vt 0.250834 0.632600
vt 0.226472 0.634557
vt 0.194726 0.525433
vt 0.148094 0.428818
vt 0.150138 0.235506
vt 0.194726 0.799652
vt 0.194726 0.635952
vt 0.152095 0.524039
vt 0.116001 0.428818
vt 0.116001 0.235506
vt 0.162980 0.634557
vt 0.116596 0.523406
vt 0.006171 0.195302
vt 0.002992 0.001990
vt 0.141937 0.632600
vt 0.152436 0.419421
vt 0.199068 0.419421
vt 0.199068 0.612733
vt 0.152436 0.612733
vt 0.245699 0.419421
vt 0.245699 0.612733
vt 0.178630 0.341857
vt 0.181215 0.307971
vt 0.193742 0.308008
vt 0.193742 0.341814
vt 0.193742 0.251909
vt 0.206268 0.307971
vt 0.208854 0.341857
vt 0.193742 0.372083
vt 0.178630 0.372083
vt 0.208854 0.372083
vt 0.769263 0.004865
vt 0.769742 0.195302
vt 0.643360 0.424506
vt 0.642402 0.236943
vt 0.775409 0.195302
vt 0.778763 0.001511
vt 0.899396 0.235506
vt 0.902271 0.425464
vt 0.331156 0.826389
vt 0.331156 0.860525
vt 0.310595 0.907157
vt 0.331156 0.907157
vt 0.310595 0.813893
vt 0.331156 0.953788
vt 0.258209 0.826388
vt 0.331156 0.987925
vt 0.229826 0.860525
vt 0.310595 1.000420
vt 0.217331 0.907157
vt 0.258209 0.987925
vt 0.229826 0.953789
vn -0.687701 0.484668 -0.540522
vn 0.000001 0.000003 -1.000000
vn -0.000000 0.000000 -1.000000
vn -0.000000 0.000001 -1.000000
vn -0.000000 0.000000 -1.000000
vn 0.687701 0.484668 -0.540522
vn 0.822610 0.100663 -0.559625
vn 0.710578 -0.162073 -0.684698
vn 0.000000 0.000000 -1.000000
vn 0.000000 0.000000 -1.000000
vn 0.000000 0.000000 -1.000000
vn -0.710578 -0.162073 -0.684698
vn -0.822610 0.100663 -0.559625
vn 0.000000 -1.000000 -0.000000
vn 0.000000 -1.000000 0.000000
vn 0.000000 -1.000000 0.000000
vn 0.000000 -1.000000 -0.000000
vn 0.000000 -1.000000 0.000000
vn 0.000000 -1.000000 0.000000
vn 0.000000 -1.000000 0.000000
vn 0.000000 -1.000000 0.000000
vn 0.000000 -1.000000 0.000000
vn 0.000000 -1.000000 0.000000
vn -0.786936 -0.617035 -0.000000
vn -0.961568 -0.274566 -0.000000
vn -0.961568 -0.274566 -0.000000
vn -0.786936 -0.617035 -0.000000
vn -0.979310 0.202367 0.000000
vn -0.979310 0.202367 0.000000
vn -0.639324 0.768938 0.000000
vn -0.549656 0.835391 0.000000
vn -0.639324 0.768938 0.000000
vn -0.639324 0.768938 0.000000
vn -0.258819 0.965926 0.000000
vn -0.258819 0.965926 0.000000
vn -0.258819 0.965926 0.000000
vn -0.258819 0.965926 0.000000
vn 0.258819 0.965926 -0.000000
vn 0.258819 0.965926 -0.000000
vn 0.258819 0.965926 -0.000000
vn 0.258819 0.965926 -0.000000
vn 0.549656 0.835391 0.000000
vn 0.639324 0.768938 0.000000
vn 0.639324 0.768938 0.000000
vn 0.639324 0.768938 0.000000
vn 0.979310 0.202367 0.000000
vn 0.961568 -0.274566 -0.000000
vn 0.961568 -0.274566 -0.000000
vn 0.979310 0.202367 0.000000
vn 0.786936 -0.617035 -0.000000
vn 0.786936 -0.617035 -0.000000
vn -0.000695 -0.999876 -0.015708
vn 0.000206 -0.999962 -0.008689
vn 0.000536 -1.000000 0.000336
vn -0.000669 -0.999858 -0.016837
vn 0.709183 -0.676379 0.198924
vn 0.805489 -0.588766 0.067390
vn 0.812722 -0.579730 0.058272
vn 0.732936 -0.660111 0.164494
vn 0.000000 -0.999999 0.001648
vn 0.000000 -0.999852 -0.017219
vn -0.000536 -1.000000 0.000336
vn 0.000669 -0.999858 -0.016837
vn -0.000206 -0.999962 -0.008689
vn 0.000695 -0.999876 -0.015708
vn -0.805489 -0.588766 0.067390
vn -0.709183 -0.676379 0.198924
vn -0.732936 -0.660111 0.164494
vn -0.812722 -0.579730 0.058272
vn -0.970729 0.223762 0.087267
vn -0.938443 0.206015 0.277278
vn -0.832428 0.470712 0.292391
vn -0.862113 0.497700 0.095157
vn -0.418063 0.855516 0.305475
vn -0.443495 0.890304 0.103301
vn 0.000000 0.949908 0.312529
vn 0.000000 0.994065 0.108785
vn 0.418063 0.855516 0.305475
vn 0.443495 0.890304 0.103301
vn 0.832428 0.470712 0.292391
vn 0.862113 0.497700 0.095157
vn 0.938443 0.206015 0.277278
vn 0.970729 0.223762 0.087267
vn -0.854575 -0.519328 0.000000
vn -0.854575 -0.519328 0.000000
vn -0.972714 0.232009 0.000000
vn -0.972714 0.232009 0.000000
vn -0.258819 0.965926 0.000000
vn 0.258819 0.965926 0.000000
vn 0.972714 0.232009 0.000000
vn 0.972714 0.232009 0.000000
vn 0.854575 -0.519328 0.000000
vn 0.854575 -0.519328 0.000000
vn -0.000000 -0.998296 0.058354
vn -0.660971 -0.703122 0.262179
vn 0.000000 0.790673 0.612239
vn 0.660971 -0.703122 0.262179
vn -0.748832 -0.527750 0.400913
vn -0.885248 -0.108327 0.452329
vn -0.887256 -0.089323 0.452547
vn -0.748832 -0.527750 0.400913
vn 0.748831 0.527750 -0.400913
vn 0.887255 0.089324 -0.452547
vn 0.152407 -0.988318 0.000000
vn 0.152407 -0.988318 0.000000
vn 0.152407 -0.988318 0.000000
vn 0.152407 -0.988318 0.000000
vn -0.877631 0.200175 0.435539
vn -0.877631 0.200175 0.435539
vn -0.299845 0.953988 0.000000
vn -0.299845 0.953988 0.000000
vn -0.299845 0.953988 0.000000
vn -0.299845 0.953988 0.000000
vn 0.877631 -0.200175 -0.435539
vn 0.877631 0.200175 0.435539
vn 0.885248 -0.108327 0.452329
vn 0.887256 -0.089323 0.452547
vn 0.877631 0.200175 0.435539
vn -0.877631 -0.200175 -0.435539
vn -0.887255 0.089324 -0.452547
vn 0.299845 0.953988 0.000000
vn 0.299845 0.953988 0.000000
vn 0.299845 0.953988 0.000000
vn 0.299845 0.953988 0.000000
vn 0.748832 -0.527750 0.400913
vn 0.748832 -0.527750 0.400913
vn -0.152407 -0.988318 0.000000
vn -0.152407 -0.988318 0.000000
vn -0.152407 -0.988318 0.000000
vn -0.152407 -0.988318 0.000000
vn -0.748831 0.527750 -0.400913
vn -0.259019 0.965056 0.039692
vn -0.259019 0.965056 0.039692
vn -0.259019 0.965056 0.039692
vn -0.259019 0.965056 0.039692
vn 0.312722 -0.949845 0.000000
vn 0.312722 -0.949845 0.000000
vn 0.312722 -0.949845 0.000000
vn 0.312722 -0.949845 0.000000
vn 0.000000 0.000000 -0.000000
vn 0.000000 0.000000 -0.000000
vn 0.000000 0.000000 -0.000000
vn 0.000000 0.000000 -0.000000
vn 0.259223 0.965817 0.000000
vn 0.259223 0.965817 0.000000
vn 0.259223 0.965817 0.000000
vn 0.259223 0.965817 0.000000
vn 0.000000 -1.000000 0.000000
vn 0.000000 -1.000000 0.000000
vn 0.000000 -1.000000 0.000000
vn 0.000000 -1.000000 0.000000
vn -0.312688 -0.949742 -0.014680
vn -0.312688 -0.949742 -0.014680
vn -0.312688 -0.949742 -0.014680
vn -0.312688 -0.949742 -0.014680
g pCylinder1
f 13/104/1 14/105/2 15/106/3
f 14/105/2 16/107/4 15/106/3
f 16/107/4 17/109/5 15/106/3
f 17/109/5 18/111/6 15/106/3
f 18/111/6 19/113/7 15/106/3
f 19/113/7 20/115/8 15/106/3
f 20/115/8 21/116/9 15/106/3
f 21/116/9 22/114/10 15/106/3
f 22/114/10 23/112/11 15/106/3
f 23/112/11 24/110/12 15/106/3
f 24/110/12 25/108/13 15/106/3
f 25/108/13 13/104/1 15/106/3
f 1/55/14 2/56/15 14/57/16 13/58/17
f 2/56/15 3/61/18 16/62/19 14/57/16
f 3/61/18 4/68/20 17/69/21 16/62/19
f 4/68/20 5/73/22 18/74/23 17/69/21
f 51/7/24 52/1/25 53/4/26 54/8/27
f 52/1/25 55/2/28 56/3/29 53/4/26
f 7/6/30 8/15/31 21/20/32 20/21/33
f 63/80/34 64/81/35 65/82/36 66/83/37
f 64/81/38 67/84/39 68/85/40 65/82/41
f 10/37/42 11/26/43 24/41/44 23/42/45
f 57/22/46 58/23/47 59/24/48 60/25/49
f 58/23/47 61/28/50 62/29/51 59/24/48
f 27/59/52 28/65/53 30/66/54 29/60/55
f 28/40/56 27/35/57 49/31/58 50/34/59
f 29/60/55 30/66/54 32/71/60 31/67/61
f 31/67/61 32/71/60 34/75/62 33/72/63
f 33/72/63 34/75/62 36/79/64 35/76/65
f 35/16/66 36/17/67 38/12/68 37/9/69
f 37/9/70 38/12/71 40/13/72 39/10/73
f 39/10/73 40/13/72 42/19/74 41/14/75
f 41/86/75 42/87/74 44/88/76 43/89/77
f 43/89/77 44/88/76 46/91/78 45/92/79
f 45/36/79 46/38/78 48/33/80 47/30/81
f 47/30/81 48/33/80 50/34/82 49/31/83
f 27/59/52 29/60/55 2/56/15 1/55/14
f 29/60/55 31/67/61 3/61/18 2/56/15
f 31/67/61 33/72/63 4/68/20 3/61/18
f 33/72/63 35/76/65 5/73/22 4/68/20
f 35/16/66 37/9/69 6/5/84 5/11/85
f 37/9/70 39/10/73 7/6/86 6/5/87
f 39/10/73 41/14/75 8/15/31 7/6/30
f 41/86/75 43/89/77 9/93/88 8/94/31
f 43/89/77 45/92/79 10/95/42 9/93/89
f 45/36/79 47/30/81 11/26/43 10/37/42
f 47/30/81 49/31/83 12/27/90 11/26/91
f 49/31/58 27/35/57 1/32/92 12/27/93
f 30/66/54 28/65/53 26/70/94
f 32/71/60 30/66/54 26/70/94
f 34/75/62 32/71/60 26/70/94
f 36/79/64 34/75/62 26/70/94
f 38/12/68 36/17/67 26/18/95
f 40/13/72 38/12/71 26/18/96
f 42/19/74 40/13/72 26/18/96
f 44/88/76 42/87/74 26/90/96
f 46/91/78 44/88/76 26/90/96
f 48/33/80 46/38/78 26/39/96
f 50/34/82 48/33/80 26/39/96
f 28/40/56 50/34/59 26/39/97
f 5/11/98 6/5/99 52/1/100 51/7/101
f 19/44/7 18/47/6 54/48/102 53/45/103
f 18/74/104 5/73/105 51/77/106 54/78/107
f 6/5/99 7/6/108 55/2/109 52/1/100
f 7/96/110 20/97/111 56/98/112 55/99/113
f 20/43/8 19/44/7 53/45/103 56/46/114
f 11/26/115 12/27/116 58/23/117 57/22/118
f 25/49/13 24/50/12 60/51/119 59/52/120
f 24/100/121 11/101/122 57/102/123 60/103/124
f 12/27/116 1/32/125 61/28/126 58/23/117
f 1/55/127 13/58/128 62/63/129 61/64/130
f 13/53/1 25/49/13 59/52/120 62/54/131
f 8//132 9//133 64//134 63//135
f 22//136 21//137 66//138 65//139
f 21//140 8//141 63//142 66//143
f 9//144 10//145 67//146 64//147
f 10//148 23//149 68//150 67//151
f 23//152 22//153 65//154 68//155
